# AST/ASF file generated using VICON BodyLanguage
# -----------------------------------------------
:version 1.10
:name VICON
:units
  mass 1.0
  length 0.45
  angle deg
:documentation
   .ast/.asf automatically generated from VICON data using
   VICON BodyBuilder and BodyLanguage model FoxedUp or BRILLIANT.MOD
:root
   order TX TY TZ RX RY RZ
   axis XYZ
   position 0 0 0  
   orientation 0 0 0 
:bonedata
  begin
     id 1 
     name lhipjoint
     direction 0.671379 -0.66392 0.329334 
     length 2.38647 
     axis 0 0 0  XYZ
  end
  begin
     id 2 
     name lfemur
     direction 0.34202 -0.939693 0  
     length 6.48179  
     axis 0 0 20  XYZ
    dof rx ry rz
    limits (-160.0 20.0)
           (-70.0 70.0)
           (-60.0 70.0)
  end
  begin
     id 3 
     name ltibia
     direction 0.34202 -0.939693 0   
     length 6.86524   
     axis 0 0 20   XYZ
    dof rx
    limits (-10.0 170.0)
  end
  begin
     id 4 
     name lfoot
     direction 0.204886 -0.562919 0.800715   
     length 1.73031   
     axis -90 7.62852e-016 20   XYZ
    dof rx rz
    limits (-45.0 90.0)
           (-70.0 20.0)
  end
  begin
     id 5 
     name ltoes
     direction 1.53548e-011 -4.21841e-011 1   
     length 0.828161   
     axis -90 7.62852e-016 20   XYZ
    dof rx
    limits (-90.0 20.0)
  end
  begin
     id 6 
     name rhipjoint
     direction -0.662732 -0.670855 0.332775   
     length 2.3618  
     axis 0 0 0  XYZ 
  end
  begin
     id 7 
     name rfemur
     direction -0.34202 -0.939693 0   
     length 6.3025   
     axis 0 0 -20   XYZ
    dof rx ry rz
    limits (-160.0 20.0)
           (-70.0 70.0)
           (-70.0 60.0)
  end
  begin
     id 8 
     name rtibia
     direction -0.34202 -0.939693 0   
     length 6.8732   
     axis 0 0 -20   XYZ
    dof rx
    limits (-10.0 170.0)
 end
 begin
     id 9 
     name rfoot
     direction -0.173856 -0.477665 0.861168   
     length 1.54784  
     axis -90 -7.62852e-016 -20   XYZ
    dof rx rz
    limits (-45.0 90.0)
           (-20.0 70.0)
  end
  begin
     id 10 
     name rtoes
     direction -1.53562e-011 -4.21802e-011 1   
     length 0.759618   
     axis -90 -7.62852e-016 -20   XYZ
    dof rx
    limits (-90.0 20.0)
  end
  begin
     id 11 
     name lowerback
     direction -0.0278357 0.999497 -0.0151789   
     length 1.97203   
     axis 0 0 0   XYZ
    dof rx ry rz
    limits (-20.0 45.0)
           (-30.0 30.0)
           (-30.0 30.0)
  end
  begin
     id 12 
     name upperback
     direction -0.00360622 0.997542 0.0699804   
     length 1.94709   
     axis 0 0 0   XYZ
    dof rx ry rz
    limits (-20.0 45.0)
           (-30.0 30.0)
           (-30.0 30.0)
  end
  begin
     id 13 
     name thorax
     direction 0.00907706 0.997048 0.0762461   
     length 1.95722   
     axis 0 0 0   XYZ
    dof rx ry rz
    limits (-20.0 45.0)
           (-30.0 30.0)
           (-30.0 30.0)
  end
  begin
     id 14 
     name lowerneck
     direction -0.0481835 0.99872 -0.0153927   
     length 1.63078   
     axis 0 0 0   XYZ
    dof rx ry rz
    limits (-20.0 45.0)
           (-30.0 30.0)
           (-30.0 30.0)
  end
  begin
     id 15 
     name upperneck
     direction 0.0859716 0.979226 -0.183644   
     length 1.62591   
     axis 0 0 0   XYZ
    dof rx ry rz
    limits (-20.0 45.0)
           (-30.0 30.0)
           (-30.0 30.0)
  end
  begin
     id 16
     name head
     direction 0.0324821 0.997629 -0.0606773  
     length 1.64811  
     axis 0 0 0   XYZ
    dof rx ry rz
    limits (-20.0 45.0)
           (-30.0 30.0)
           (-30.0 30.0)
  end
  begin
     id 17 
     name lclavicle
     direction 0.939609 0.311019 0.142835  
     length 3.70647  
     axis 0 0 0   XYZ
    dof ry rz
    limits (-20.0 10.0)
           (0.0 20.0)
  end
  begin
     id 18 
     name lhumerus
     direction 1 -4.48963e-011 -1.59838e-027   
     length 4.59207   
     axis 180 -30 -90   XYZ
    dof rx ry rz
    limits (-60.0 90.0)
           (-90.0 90.0)
           (-90.0 90.0)
  end
  begin
     id 19
     name lradius
     direction 1 -4.48957e-011 -1.3483e-026   
     length 2.98109   
     axis 180 -30 -90   XYZ
    dof rx
    limits (-10.0 170.0)
  end
  begin
     id 20
     name lwrist
     direction 1 -4.48954e-011 -3.11579e-026   
     length 1.49055   
     axis 2.00652e-014 90 90   XYZ
    dof ry
    limits (-180.0 0.0)
 end
  begin
     id 21 
     name lhand
     direction 1 -4.4911e-011 -6.23158e-026   
     length 0.480203   
     axis 3.97628e-014 90 90   XYZ
    dof rx rz
    limits (-90.0 90.0)
           (-45.0 45.0)
  end
  begin
     id 22 
     name lfingers
     direction 1 -4.48893e-011 -1.24632e-025   
     length 0.387152   
     axis 7.95256e-014 90 90   XYZ
    dof rx
    limits (0.0 90.0)
  end
  begin
     id 23
     name lthumb
     direction 0.707107 -6.35013e-011 0.707107   
     length 0.555875   
     axis -90 45 2.85299e-015   XYZ
    dof rx rz
    limits (-45.0 45.0)
           (-45.0 45.0)
  end
  begin
     id 24 
     name rclavicle
     direction -0.950396 0.30392 0.0661859   
     length 3.70894  
     axis 0 0 0   XYZ 
    dof ry rz
    limits (-10.0 20.0)
           (-20.0 0.0)
  end
  begin
     id 25 
     name rhumerus
     direction -1 -4.48957e-011 -2.96677e-027  
     length 4.76508   
     axis 180 30 90   XYZ
    dof rx ry rz
    limits (-90.0 60.0)
           (-90.0 90.0)
           (-90.0 90.0)
  end
  begin
     id 26 
     name rradius
     direction -1 -4.48974e-011 -1.44501e-026   
     length 2.78902   
     axis 180 30 90   XYZ
    dof rx
    limits (-10.0 170.0)
  end
  begin
     id 27 
     name rwrist
     direction -1 -4.48978e-011 -3.11579e-026   
     length 1.39451   
     axis 2.00652e-014 -90 -90   XYZ
    dof ry
    limits (-180.0 0.0)
  end
  begin
     id 28
     name rhand
     direction -1 -4.48956e-011 -6.23158e-026   
     length 0.721303   
     axis 3.97628e-014 -90 -90   XYZ
    dof rx rz
    limits (-90.0 90.0)
           (-45.0 45.0)
  end
  begin
     id 29
     name rfingers
     direction -1 -4.4899e-011 -1.24632e-025   
     length 0.581533   
     axis 7.95256e-014 -90 -90   XYZ
    dof rx
    limits (0.0 90.0)
  end
  begin
     id 30
     name rthumb
     direction -0.707107 -6.34911e-011 0.707107   
     length 0.834968   
     axis -90 -45 -2.85299e-015   XYZ
    dof rx rz
    limits (-45.0 45.0)
           (-45.0 45.0)
  end
:hierarchy
  begin
    root lhipjoint rhipjoint lowerback
    lhipjoint lfemur
    lfemur ltibia
    ltibia lfoot
    lfoot ltoes
    rhipjoint rfemur
    rfemur rtibia
    rtibia rfoot
    rfoot rtoes
    lowerback upperback
    upperback thorax
    thorax lowerneck lclavicle rclavicle
    lowerneck upperneck
    upperneck head
    lclavicle lhumerus
    lhumerus lradius
    lradius lwrist
    lwrist lhand lthumb
    lhand lfingers
    rclavicle rhumerus
    rhumerus rradius
    rradius rwrist
    rwrist rhand rthumb
    rhand rfingers
  end

#!OML:ASF I:\salsa\salsa 7_09\Patient 1\Session 1\dancerfemale.ASF
:FULLY-SPECIFIED
:DEGREES
870
root -12.647 15.8853 1.38908 -216.27 84.753 -220.36
lowerback 11.8673 6.56612 1.84551
upperback -6.36251 9.13151 -1.37019
thorax -13.1271 4.08834 -4.60008
lowerneck 1.70169 -8.37242 -12.3573
upperneck 8.79546 -11.7844 10.3367
head 3.68789 -5.87653 4.71368
rclavicle 5.15349e-014 -4.77083e-015
rhumerus -29.97 -21.45 -91.1097
rradius 57.6305
rwrist -56.4788
rhand -11.0899 401.164
rfingers 7.12502
rthumb 14.9339 11.7227
lclavicle 5.15349e-014 -4.77083e-015
lhumerus 6.06504 -7.95611 63.883
lradius 88.2335
lwrist 41.2342
lhand 16.6125 40.2872
lfingers 7.12502
lthumb 41.3673 65.0857
rfemur -27.0099 -20.3588 15.1818
rtibia 72.5119
rfoot 6.71274 4.69185
rtoes -27.8821
lfemur -22.3792 -3.44531 -32.9469
ltibia 36.945
lfoot -19.9374 -3.20757
ltoes 22.2972
871
root -12.5796 15.8703 1.39061 -218.308 83.0292 -221.783
lowerback 12.5954 6.68802 2.07001
upperback -5.95134 9.23527 -2.13076
thorax -12.913 4.08188 -5.62919
lowerneck 2.50448 -8.91481 -13.0722
upperneck 8.52147 -12.6336 11.0138
head 3.66166 -6.32004 5.01521
rclavicle -6.74625e-014 -6.75868e-015
rhumerus -28.7445 -21.4774 -91.5763
rradius 56.501
rwrist -56.3371
rhand -11.1561 400.928
rfingers 7.12502
rthumb 14.8701 11.4812
lclavicle -6.74625e-014 -6.75868e-015
lhumerus 6.99859 -8.58142 63.7575
lradius 88.8051
lwrist 41.5077
lhand 15.8823 40.6406
lfingers 7.12502
lthumb 40.6815 65.6574
rfemur -29.2141 -20.301 13.4274
rtibia 73.8608
rfoot 4.24945 3.49057
rtoes -32.7182
lfemur -20.7612 -2.43452 -34.4781
ltibia 35.8733
lfoot -19.3724 -4.84549
ltoes 22.4673
872
root -12.5031 15.8654 1.40148 -215.606 81.7984 -218.721
lowerback 13.3063 6.75201 3.08495
upperback -5.86643 9.43371 -2.93527
thorax -12.9187 4.04544 -7.1941
lowerneck 3.38682 -9.45739 -13.2984
upperneck 8.53322 -13.498 11.6592
head 3.68654 -6.75468 5.23264
rclavicle -3.24764e-014 2.10712e-014
rhumerus -27.9805 -21.8386 -92.2065
rradius 55.7814
rwrist -56.1945
rhand -11.6308 400.484
rfingers 7.12502
rthumb 14.4128 11.0044
lclavicle -3.24764e-014 2.10712e-014
lhumerus 7.91474 -9.20909 63.5246
lradius 88.9179
lwrist 41.4711
lhand 16.2398 41.0269
lfingers 7.12502
lthumb 41.0174 65.9378
rfemur -31.344 -19.3166 12.8041
rtibia 74.0758
rfoot 1.98649 2.17256
rtoes -33.2039
lfemur -19.6016 -1.72051 -35.046
ltibia 35.1468
lfoot -19.1281 -6.30164
ltoes 22.8079
873
root -12.4168 15.8652 1.42398 -211.429 80.7729 -213.999
lowerback 14.1971 6.75936 4.24505
upperback -5.83227 9.63886 -3.45289
thorax -13.1099 3.99728 -8.57812
lowerneck 4.54576 -10.0044 -13.0525
upperneck 8.39418 -14.3214 11.663
head 3.54508 -7.18303 5.20503
rclavicle -7.01958e-015 5.26779e-015
rhumerus -27.4642 -22.3561 -92.5745
rradius 55.2508
rwrist -55.9398
rhand -12.1947 400.574
rfingers 7.12502
rthumb 13.8694 11.056
lclavicle -7.01958e-015 5.26779e-015
lhumerus 8.73629 -9.28877 64.2165
lradius 88.213
lwrist 40.5738
lhand 17.673 41.4254
lfingers 7.12502
lthumb 42.3615 65.8932
rfemur -32.8504 -17.6055 12.6751
rtibia 73.2376
rfoot -0.169061 1.00266
rtoes -33.4853
lfemur -18.2909 -1.70576 -35.0014
ltibia 34.5669
lfoot -19.2015 -7.15067
ltoes 23.3339
874
root -12.3291 15.856 1.45598 -210.393 79.374 -212.529
lowerback 15.0149 6.66518 4.81188
upperback -5.73681 9.59018 -4.08549
thorax -13.2975 3.87592 -9.71661
lowerneck 5.56653 -10.4675 -12.908
upperneck 8.16088 -15.0188 11.7592
head 3.39569 -7.54957 5.22927
rclavicle -4.43251e-014 3.44146e-015
rhumerus -26.6949 -23.0884 -93.0678
rradius 54.6514
rwrist -55.4807
rhand -12.4317 400.637
rfingers 7.12502
rthumb 13.641 11.1044
lclavicle -4.43251e-014 3.44146e-015
lhumerus 9.50709 -9.63778 64.2062
lradius 88.2234
lwrist 40.5374
lhand 17.6431 42.1837
lfingers 7.12502
lthumb 42.3334 66.661
rfemur -34.1119 -15.9819 11.8229
rtibia 71.592
rfoot -1.99141 0.419953
rtoes -32.3831
lfemur -17.0003 -2.56187 -35.4797
ltibia 33.9723
lfoot -19.192 -7.26651
ltoes 23.6127
